<svg width="1728" height="1792" viewBox="0 0 1728 1792" fill="none" xmlns="http://www.w3.org/2000/svg">
<path d="M1682.67 970.953C1680.3 948.657 1676.72 927.531 1674.36 905.235C1656.57 749.16 1631.52 594.241 1582.22 445.13C1567.79 400.515 1549.73 357.064 1529.24 314.781C1515.98 287.766 1499.08 261.916 1478.54 239.577C1419.35 173.739 1335.74 180.58 1290.73 256.73C1271.26 289.532 1259.06 327.045 1244.43 362.206C1239.56 372.753 1237.11 383.306 1228.6 393.844C1226.2 385.626 1223.8 377.408 1221.4 369.19C1204.6 301.106 1187.82 231.849 1157.69 167.252C1143.23 135.542 1126.35 104.999 1107.04 75.6241C1096.18 58.0007 1080.47 42.7123 1064.75 29.7699C1017.6 -7.88365 959.454 -9.1948 908.489 24.7065C881.794 42.2409 861.138 66.8288 844.114 92.5983C813.715 138.28 791.789 186.329 773.493 236.732C728.369 357.463 696.56 482.918 668.386 608.381C640.199 738.537 614.433 869.872 587.458 1000.03C586.226 1008.24 583.786 1015.27 576.497 1023.47C571.677 1012.9 568.066 1003.51 563.246 992.935C530.733 914.255 493.368 837.909 441.445 769.742C417.295 738.009 389.505 708.613 360.498 681.561C333.907 656.861 298.814 641.527 261.268 637.918C207.979 631.926 161.898 650.588 123.045 685.691C90.2631 714.943 68.3669 751.259 50.0995 789.931C19.6473 856.73 2.51233 927.08 -8.56822 998.618C-38.1292 1194.46 -37.4073 1391.56 -18.5109 1587.53C-4.33226 1731.86 20.7553 1873.88 64.0231 2012.41C80.8551 2064.07 100.11 2115.74 127.856 2162.73C147.155 2196.8 170.096 2227.36 200.315 2254.41C278.892 2321.47 373.367 2328.73 460.721 2276.15C494.694 2255.11 522.621 2229.37 548.137 2198.92C583.373 2156.77 612.558 2112.26 635.698 2063.04C662.489 2006.79 686.861 1949.37 712.441 1893.11C716.096 1884.91 719.75 1876.71 725.842 1862.64C731.87 1874.39 735.49 1880.26 739.107 1887.31C769.235 1950.73 798.153 2014.15 830.71 2075.24C863.267 2136.32 903.104 2192.73 955.077 2240.95C980.459 2264.47 1008.27 2285.66 1037.3 2302.15C1117.15 2346.92 1200.73 2349.47 1285.63 2310.95C1338.99 2286.44 1382.69 2250.18 1422.77 2208.04C1466.5 2162.39 1501.76 2110.85 1534.6 2058.14C1539.46 2049.93 1545.55 2040.56 1552.84 2030.02C1558.87 2039.42 1562.49 2046.47 1566.11 2053.52C1604.68 2129.87 1661.47 2189.83 1737.69 2233.42C1798.17 2267.59 1862.31 2294.72 1931.33 2306.62C1989.45 2318.49 2041.58 2304.53 2088.91 2269.45C2142.32 2229.69 2182.42 2179.34 2205.59 2118.39C2221.44 2078.54 2236.07 2037.51 2245.87 1995.3C2269.15 1890.94 2291.22 1785.41 2308.44 1681.03C2345.32 1461.74 2367.68 1241.23 2365.8 1019.5C2364.9 893.968 2355.53 768.415 2326.76 645.163C2314.77 592.341 2300.36 540.687 2273.83 493.697C2255.74 461.978 2236.44 429.083 2211.06 403.213C2137.36 323.262 2039.24 321.856 1961.52 397.929C1938.44 420.165 1916.57 445.923 1900.76 472.868C1869.13 526.76 1838.7 581.827 1815.55 638.085C1772.89 740.05 1736.29 844.377 1698.48 946.354C1694.83 954.557 1692.38 962.764 1688.73 970.967C1686.31 970.962 1685.09 970.959 1682.67 970.953Z" fill="#F4F1EC"/>
</svg>
